<mxfile host="app.diagrams.net" agent="Mozilla/5.0 (Windows NT 10.0; Win64; x64) AppleWebKit/537.36 (KHTML, like Gecko) Chrome/140.0.0.0 Safari/537.36" version="28.2.3">
  <diagram name="Trang-1" id="7j4UMApblXJd3IPi9_mr">
    <mxGraphModel grid="1" page="1" gridSize="10" guides="1" tooltips="1" connect="1" arrows="1" fold="1" pageScale="1" pageWidth="827" pageHeight="1169" math="0" shadow="0">
      <root>
        <mxCell id="0" />
        <mxCell id="1" parent="0" />
        <mxCell id="UgYeSBEzfl3MIe23Ba7a-1" value="&lt;ul style=&quot;box-sizing: border-box; margin: 0px; padding: 0px 0px 0px 2rem; list-style: circle; font-family: Arial, sans-serif; font-size: 16px; font-weight: 400; text-align: left; white-space: pre; background-color: rgb(255, 255, 255); padding-inline-start: 48px;&quot;&gt;&lt;li style=&quot;box-sizing: border-box; margin: 0px; padding: 0px; background-color: transparent; font-size: 12pt; font-variant-numeric: normal; font-variant-east-asian: normal; font-variant-alternates: normal; font-variant-position: normal; font-variant-emoji: normal; list-style-type: circle; vertical-align: baseline;&quot; aria-level=&quot;2&quot; dir=&quot;ltr&quot;&gt;&lt;span style=&quot;box-sizing: border-box; margin: 0px; padding: 0px; background-color: transparent; font-size: 12pt;&quot;&gt;&lt;span style=&quot;box-sizing: border-box; margin: 0px; padding: 0px; font-variant-numeric: normal; font-variant-east-asian: normal; font-variant-alternates: normal; font-variant-position: normal; font-variant-emoji: normal; vertical-align: baseline; text-wrap-mode: wrap;&quot;&gt;Nhập dữ liệu (Input)&lt;/span&gt;&lt;/span&gt;&lt;/li&gt;&lt;/ul&gt;" style="swimlane;whiteSpace=wrap;html=1;startSize=50;" vertex="1" parent="1">
          <mxGeometry y="150" width="360" height="350" as="geometry" />
        </mxCell>
        <mxCell id="UgYeSBEzfl3MIe23Ba7a-8" value="&lt;font style=&quot;font-size: 14px;&quot;&gt;&lt;b&gt; khách hàng lựa chọn sản phẩm&lt;/b&gt;&lt;/font&gt;&lt;div&gt;&lt;span style=&quot;background-color: transparent; color: light-dark(rgb(0, 0, 0), rgb(255, 255, 255));&quot;&gt;&lt;font style=&quot;font-size: 14px;&quot;&gt;&lt;b&gt;nhập số lượng&lt;/b&gt;&lt;/font&gt;&lt;/span&gt;&lt;div&gt;&lt;font style=&quot;font-size: 14px;&quot;&gt;&lt;b&gt;&amp;nbsp;địa chỉ giao hàng&lt;/b&gt;&lt;/font&gt;&lt;/div&gt;&lt;div&gt;&lt;font style=&quot;font-size: 14px;&quot;&gt;&lt;b&gt;&amp;nbsp; &amp;nbsp; &amp;nbsp; &amp;nbsp; &amp;nbsp; &amp;nbsp; &amp;nbsp; &amp;nbsp; phương thức thanh toán.&lt;/b&gt;&lt;/font&gt;&lt;/div&gt;&lt;div&gt;&lt;font style=&quot;font-size: 14px;&quot;&gt;&lt;b&gt;&amp;nbsp;Người quản trị nhập thông tin sản phẩm mới, giá cả, tồn kho.&lt;/b&gt;&lt;/font&gt;&lt;/div&gt;&lt;/div&gt;" style="rounded=1;whiteSpace=wrap;html=1;" vertex="1" parent="UgYeSBEzfl3MIe23Ba7a-1">
          <mxGeometry x="15" y="60" width="320" height="280" as="geometry" />
        </mxCell>
        <mxCell id="UgYeSBEzfl3MIe23Ba7a-2" value="&lt;ul style=&quot;box-sizing: border-box; margin: 0px; padding: 0px 0px 0px 2rem; list-style: circle; font-family: Arial, sans-serif; font-size: 16px; font-weight: 400; text-align: left; white-space: pre; background-color: rgb(255, 255, 255); padding-inline-start: 48px;&quot;&gt;&lt;li style=&quot;box-sizing: border-box; margin: 0px; padding: 0px; background-color: transparent; font-size: 12pt; font-variant-numeric: normal; font-variant-east-asian: normal; font-variant-alternates: normal; font-variant-position: normal; font-variant-emoji: normal; list-style-type: circle; vertical-align: baseline;&quot; aria-level=&quot;2&quot; dir=&quot;ltr&quot;&gt;&lt;span style=&quot;box-sizing: border-box; margin: 0px; padding: 0px; background-color: transparent; font-size: 12pt;&quot;&gt;&lt;span style=&quot;box-sizing: border-box; margin: 0px; padding: 0px; font-variant-numeric: normal; font-variant-east-asian: normal; font-variant-alternates: normal; font-variant-position: normal; font-variant-emoji: normal; vertical-align: baseline; text-wrap-mode: wrap;&quot;&gt;Xử lý dữ liệu (Processing)&lt;/span&gt;&lt;/span&gt;&lt;/li&gt;&lt;/ul&gt;" style="swimlane;whiteSpace=wrap;html=1;startSize=50;" vertex="1" parent="1">
          <mxGeometry x="430" y="150" width="350" height="350" as="geometry" />
        </mxCell>
        <mxCell id="UgYeSBEzfl3MIe23Ba7a-9" value="&lt;font style=&quot;font-size: 14px;&quot;&gt;&lt;b&gt;Hệ thống sẽ xử lý thông tin đã nhập theo các thuật toán và quy tắc có sẵn:&lt;/b&gt;&lt;/font&gt;&lt;div&gt;&lt;font style=&quot;font-size: 14px;&quot;&gt;&lt;b&gt;Tính tổng giá trị đơn hàng&lt;/b&gt;&lt;/font&gt;&lt;/div&gt;&lt;div&gt;&lt;font style=&quot;font-size: 14px;&quot;&gt;&lt;b&gt;&amp;nbsp;áp dụng mã giảm giá&lt;/b&gt;&lt;/font&gt;&lt;/div&gt;&lt;div&gt;&lt;font style=&quot;font-size: 14px;&quot;&gt;&lt;b&gt;&amp;nbsp;kiểm tra tồn kho&lt;/b&gt;&lt;/font&gt;&lt;/div&gt;&lt;div&gt;&lt;font style=&quot;font-size: 14px;&quot;&gt;&lt;b&gt;&amp;nbsp;xác nhận phương thức vận chuyển&lt;/b&gt;&lt;/font&gt;&lt;/div&gt;&lt;div&gt;&lt;font style=&quot;font-size: 14px;&quot;&gt;&lt;b&gt;&amp;nbsp;gửi yêu cầu thanh toán trực tuyến.&lt;br&gt;&lt;/b&gt;&lt;/font&gt;&lt;div&gt;&lt;br&gt;&lt;/div&gt;&lt;/div&gt;" style="rounded=1;whiteSpace=wrap;html=1;" vertex="1" parent="UgYeSBEzfl3MIe23Ba7a-2">
          <mxGeometry x="20" y="60" width="310" height="270" as="geometry" />
        </mxCell>
        <mxCell id="UgYeSBEzfl3MIe23Ba7a-3" value="Lưu trữ dữ liệu (Storage):" style="swimlane;whiteSpace=wrap;html=1;startSize=50;" vertex="1" parent="1">
          <mxGeometry x="430" y="540" width="350" height="360" as="geometry" />
        </mxCell>
        <mxCell id="UgYeSBEzfl3MIe23Ba7a-10" value="&lt;li data-end=&quot;929&quot; data-start=&quot;832&quot;&gt;&lt;p data-end=&quot;929&quot; data-start=&quot;834&quot;&gt;&lt;font style=&quot;font-size: 14px;&quot;&gt;&lt;b&gt;Dữ liệu giao dịch, thông tin khách hàng, sản phẩm và thanh toán được lưu trong cơ sở dữ liệu.&lt;/b&gt;&lt;/font&gt;&lt;/p&gt;&lt;font style=&quot;font-size: 14px;&quot;&gt;&lt;b&gt;&lt;br&gt;&lt;/b&gt;&lt;/font&gt;&lt;/li&gt;&lt;font style=&quot;font-size: 14px;&quot;&gt;&lt;b&gt;&lt;br&gt;&lt;/b&gt;&lt;/font&gt;&lt;li data-end=&quot;1063&quot; data-start=&quot;933&quot;&gt;&lt;font style=&quot;font-size: 14px;&quot;&gt;&lt;b&gt;&lt;br&gt;&lt;/b&gt;&lt;/font&gt;&lt;p data-end=&quot;1063&quot; data-start=&quot;935&quot;&gt;&lt;font style=&quot;font-size: 14px;&quot;&gt;&lt;b&gt;Việc lưu trữ giúp đảm bảo thông tin có thể truy xuất về sau để theo dõi đơn hàng, chăm sóc khách hàng, hoặc thống kê doanh số.&lt;/b&gt;&lt;/font&gt;&lt;/p&gt;&lt;/li&gt;" style="rounded=1;whiteSpace=wrap;html=1;" vertex="1" parent="UgYeSBEzfl3MIe23Ba7a-3">
          <mxGeometry x="20" y="60" width="310" height="270" as="geometry" />
        </mxCell>
        <mxCell id="UgYeSBEzfl3MIe23Ba7a-4" value="Xuất kết quả (Output):" style="swimlane;whiteSpace=wrap;html=1;startSize=50;" vertex="1" parent="1">
          <mxGeometry y="540" width="350" height="360" as="geometry" />
        </mxCell>
        <mxCell id="UgYeSBEzfl3MIe23Ba7a-11" value="&lt;li data-end=&quot;1164&quot; data-start=&quot;1100&quot;&gt;&lt;p data-end=&quot;1164&quot; data-start=&quot;1102&quot;&gt;&lt;font style=&quot;font-size: 14px;&quot;&gt;&lt;b&gt;Hệ thống cung cấp kết quả cho người dùng hoặc quản trị viên.&lt;/b&gt;&lt;/font&gt;&lt;/p&gt;&lt;font style=&quot;font-size: 14px;&quot;&gt;&lt;b&gt;&lt;br&gt;&lt;/b&gt;&lt;/font&gt;&lt;/li&gt;&lt;font style=&quot;font-size: 14px;&quot;&gt;&lt;b&gt;&lt;br&gt;&lt;/b&gt;&lt;/font&gt;&lt;li data-end=&quot;1304&quot; data-start=&quot;1168&quot;&gt;&lt;font style=&quot;font-size: 14px;&quot;&gt;&lt;b&gt;&lt;br&gt;&lt;/b&gt;&lt;/font&gt;&lt;p data-end=&quot;1304&quot; data-start=&quot;1170&quot;&gt;&lt;font style=&quot;font-size: 14px;&quot;&gt;&lt;b&gt;Ví dụ: hiển thị hóa đơn mua hàng, gửi email xác nhận đơn hàng cho khách, báo cáo tồn kho cho người quản lý, hoặc in phiếu giao hàng.&lt;/b&gt;&lt;/font&gt;&lt;/p&gt;&lt;/li&gt;" style="rounded=1;whiteSpace=wrap;html=1;" vertex="1" parent="UgYeSBEzfl3MIe23Ba7a-4">
          <mxGeometry x="15" y="60" width="320" height="270" as="geometry" />
        </mxCell>
        <mxCell id="UgYeSBEzfl3MIe23Ba7a-5" value="" style="shape=flexArrow;endArrow=classic;html=1;rounded=0;" edge="1" parent="1">
          <mxGeometry width="50" height="50" relative="1" as="geometry">
            <mxPoint x="360" y="220" as="sourcePoint" />
            <mxPoint x="430" y="220" as="targetPoint" />
            <Array as="points" />
          </mxGeometry>
        </mxCell>
        <mxCell id="UgYeSBEzfl3MIe23Ba7a-6" value="" style="shape=flexArrow;endArrow=classic;html=1;rounded=0;exitX=0.5;exitY=1;exitDx=0;exitDy=0;entryX=0.5;entryY=0;entryDx=0;entryDy=0;" edge="1" parent="1" source="UgYeSBEzfl3MIe23Ba7a-2" target="UgYeSBEzfl3MIe23Ba7a-3">
          <mxGeometry width="50" height="50" relative="1" as="geometry">
            <mxPoint x="390" y="310" as="sourcePoint" />
            <mxPoint x="440" y="260" as="targetPoint" />
          </mxGeometry>
        </mxCell>
        <mxCell id="UgYeSBEzfl3MIe23Ba7a-7" value="" style="shape=flexArrow;endArrow=classic;html=1;rounded=0;exitX=0;exitY=0.5;exitDx=0;exitDy=0;entryX=1;entryY=0.5;entryDx=0;entryDy=0;" edge="1" parent="1" source="UgYeSBEzfl3MIe23Ba7a-3" target="UgYeSBEzfl3MIe23Ba7a-4">
          <mxGeometry width="50" height="50" relative="1" as="geometry">
            <mxPoint x="390" y="310" as="sourcePoint" />
            <mxPoint x="440" y="260" as="targetPoint" />
          </mxGeometry>
        </mxCell>
        <mxCell id="UgYeSBEzfl3MIe23Ba7a-12" value="bán hàng trên ứng dụng shoppe" style="whiteSpace=wrap;html=1;" vertex="1" parent="1">
          <mxGeometry x="330" y="40" width="120" height="60" as="geometry" />
        </mxCell>
      </root>
    </mxGraphModel>
  </diagram>
</mxfile>
